<svg id="_1" data-name="1" xmlns="http://www.w3.org/2000/svg" viewBox="0 0 807.28 990.96"><defs><style>.cls-1{fill:#e8bcaf;}.cls-2{fill:#231f20;}.cls-3,.cls-4{fill:#f0efef;}.cls-4{opacity:0.55;}</style></defs><title>js</title><path class="cls-1" d="M321.29,275.9s-66.46,109-57.16,185.41-23.25,182.08-23.25,182.08-8.64,37.22,0,77.09S274.77,862.7,274.77,862.7L310,961.05s9.3,41.2,51.83,56.49,111,17.94,111,17.94,136.9-10,188.74-49.84S765.87,886,773.85,859.37s30.57-95.69,30.57-95.69,11.29,25.92,46.51,1.33,41.21-56.49,41.21-56.49L917.39,664s8-23.26,10-29.91S940,604.19,940,604.19s14.62-29.91-14.62-40.54c0,0-28.57,8.64-42.53,23.26,0,0,54.76-127.74,4.2-223.23s-42.13-112.35-176.94-162-289.29,0-289.29,0S341.26,238.53,321.29,275.9Z" transform="translate(-136.36 -44.52)"/><path class="cls-2" d="M694.72,66.08c-31.61-4.83-44.92,17.31-44.92,17.31S603.89,9.63,470,65.32,322.43,179,301.36,199.28s0,73.76,0,73.76-11.29,29.35-31.61,88.8c-18.15,53.11-12.57,85.6-11.18,91.93.16.71,5.95,13.39,6.25,14.05l1.37-.17c-15.4-48.16,39.68-153.22,39.68-153.22s51.93-93.32,204.7-106.12,261.9,76.77,261.9,76.77l3,121.91c29.35,21.83,54.94,82,54.94,82l4.52,68.48-17.31,91.82,3,37.52L888.27,582c42-116.22,19-147.75,13.49-214.92s-42-88.81-42-88.81c12.8-31.6,4.52-46.66,4.52-46.66C800.32,111.23,710,66.83,694.72,66.08Z" transform="translate(-136.36 -44.52)"/><polygon class="cls-2" points="476.86 23.11 541.7 21.48 552.46 45.25 529.68 82.57 476.86 23.11"/><path class="cls-3" d="M136.36,491.86s90.45-21.14,143.05-25.56,119.46,32.93,119.46,32.93c10.81-10.81,64.89-3,64.89-3,25.56-45.71,167.14-36.86,167.14-36.86L752.81,478.1s97.83,30,105.2,31.95,43.75,39.82,43.75,39.82l-5.9,14.74-5.8,2.5-39.42-6.43s-70.3-35.39-99.3-40.8-35.89,30.48-35.89,30.48S702.38,609.07,693,633c-16.92,43.24-36.15,44.89-51.82,48.63-33.77,8.07-75.69,4.44-75.69,4.44-29.43-1-53.63-13.84-66.09-21.94a47.4,47.4,0,0,1-15.12-15.8c-4.83-8.23-12-22.13-19.1-42.35-12.87-36.47-9.81-71.81-9.81-71.81s-2-5.41-33.92-7.87-26.54,13.27-26.54,13.27c5.36,56.32-24.81,101.59-38.38,118.83a35.8,35.8,0,0,1-15.45,11.38,178.41,178.41,0,0,1-86.77,9.4c-54.56-7.86-63.41-33.42-63.41-33.42s-19.67-29-25.07-74.23-29.5-43.26-29.5-43.26m67.4,111.37c18.7,19.61,29.19,25.08,83.46,27.81s73.42-34.65,73.42-34.65,15.05-21.89,19.15-73.88S347,493.68,347,493.68s-20.52-11.86-81.25-10.05-77.45,27.83-77.45,27.83C174.58,532,185.07,620,203.76,639.61ZM521.59,480.66s-55.73,7.3-51.36,71.2,37.64,103.3,37.64,103.3,22.47,20.13,68.58,21.3c31.26.79,59-5.52,73.67-9.68a36.48,36.48,0,0,0,20.57-14.94c7.29-11,16.79-30.88,21.31-63.5,7.88-56.9-2-94.25-20.72-101.26s-75-14-94.54-11.38C576.74,475.7,556.31,476,521.59,480.66Z" transform="translate(-136.36 -44.52)"/><path class="cls-4" d="M203.76,639.61c18.7,19.61,29.19,25.08,83.46,27.81s73.42-34.65,73.42-34.65,15.05-21.89,19.15-73.88S347,493.68,347,493.68s-20.52-11.86-81.25-10.05-77.45,27.83-77.45,27.83C174.58,532,185.07,620,203.76,639.61Z" transform="translate(-136.36 -44.52)"/><path class="cls-4" d="M521.59,480.66s-55.73,7.3-51.36,71.2,37.64,103.3,37.64,103.3,22.47,20.13,68.58,21.3c31.26.79,59-5.52,73.67-9.68a36.48,36.48,0,0,0,20.57-14.94c7.29-11,16.79-30.88,21.31-63.5,7.88-56.9-2-94.25-20.72-101.26s-75-14-94.54-11.38C576.74,475.7,556.31,476,521.59,480.66Z" transform="translate(-136.36 -44.52)"/></svg>